<svg xmlns="http://www.w3.org/2000/svg" viewBox="0 0 320 320" role="img" aria-labelledby="title desc">
  <title id="title">QR de Yape</title>
  <desc id="desc">Reemplaza este archivo por el QR real de Yape del negocio.</desc>
  <rect width="320" height="320" rx="28" fill="#ffffff"/>
  <rect x="18" y="18" width="284" height="284" rx="22" fill="none" stroke="#7c3aed" stroke-width="8"/>
  <g fill="#111827">
    <rect x="46" y="46" width="76" height="76" rx="8"/>
    <rect x="198" y="46" width="76" height="76" rx="8"/>
    <rect x="46" y="198" width="76" height="76" rx="8"/>
  </g>
  <g fill="#ffffff">
    <rect x="62" y="62" width="44" height="44" rx="5"/>
    <rect x="214" y="62" width="44" height="44" rx="5"/>
    <rect x="62" y="214" width="44" height="44" rx="5"/>
  </g>
  <g fill="#7c3aed">
    <rect x="146" y="50" width="22" height="22" rx="3"/>
    <rect x="146" y="94" width="22" height="44" rx="3"/>
    <rect x="176" y="146" width="22" height="22" rx="3"/>
    <rect x="220" y="146" width="54" height="22" rx="3"/>
    <rect x="146" y="198" width="22" height="76" rx="3"/>
    <rect x="198" y="198" width="22" height="22" rx="3"/>
    <rect x="242" y="198" width="32" height="76" rx="3"/>
  </g>
  <rect x="42" y="137" width="236" height="46" rx="23" fill="#ffffff"/>
  <text x="160" y="156" fill="#5b21b6" font-family="Arial, sans-serif" font-size="17" font-weight="700" text-anchor="middle">Yape</text>
  <text x="160" y="175" fill="#111827" font-family="Arial, sans-serif" font-size="12" font-weight="700" text-anchor="middle">Reemplazar por QR real</text>
</svg>
